# xmcd CD database file
#
# Track frame offsets:
#	150
#	10652
#	21490
#	32575
#	44505
#	57230
#	67125
#	76067
#	86067
#	97517
#	112720
#	124607
#
# Disc length: 1797 seconds
#
# Revision: 7
# Processed by: cddbd v1.5.1PL2 Copyright (c) Steve Scherf et al.
# Submitted via: CDex 1.51
#
DISCID=8807030c
DTITLE=Jim Reeves - All-Time Greatest Hits
DYEAR=1997
DGENRE=Country
TTITLE0=He'll Have To Go
TTITLE1=My Lips Are Sealed
TTITLE2=According To My Heart
TTITLE3=Am I Losing You
TTITLE4=Four Walls
TTITLE5=Blue Boy
TTITLE6=Home
TTITLE7=Partners
TTITLE8=I Missed Me
TTITLE9=The Blizzard
TTITLE10=Dark Moon
TTITLE11=Losing Your Love
EXTD=YEAR: 1997
EXTT0=
EXTT1=
EXTT2=
EXTT3=
EXTT4=
EXTT5=
EXTT6=
EXTT7=
EXTT8=
EXTT9=
EXTT10=
EXTT11=
PLAYORDER=
